<mxfile host="Electron" agent="Mozilla/5.0 (X11; Linux x86_64) AppleWebKit/537.36 (KHTML, like Gecko) draw.io/27.0.9 Chrome/134.0.6998.205 Electron/35.4.0 Safari/537.36" version="27.0.9">
  <diagram name="ページ1" id="_9QZ5y8T6yqAmp0ua9Gw">
    <mxGraphModel dx="570" dy="337" grid="1" gridSize="10" guides="1" tooltips="1" connect="1" arrows="1" fold="1" page="1" pageScale="1" pageWidth="827" pageHeight="1169" math="0" shadow="0">
      <root>
        <mxCell id="0" />
        <mxCell id="1" parent="0" />
        <mxCell id="ULT_UUo3YE9wD12uy11K-1" value="" style="endArrow=none;html=1;rounded=0;" edge="1" parent="1">
          <mxGeometry width="50" height="50" relative="1" as="geometry">
            <mxPoint x="100" y="160" as="sourcePoint" />
            <mxPoint x="180" y="160" as="targetPoint" />
            <Array as="points">
              <mxPoint x="120" y="160" />
              <mxPoint x="120" y="120" />
              <mxPoint x="140" y="120" />
              <mxPoint x="140" y="160" />
              <mxPoint x="160" y="160" />
              <mxPoint x="160" y="120" />
              <mxPoint x="180" y="120" />
            </Array>
          </mxGeometry>
        </mxCell>
        <mxCell id="ULT_UUo3YE9wD12uy11K-2" value="" style="endArrow=none;html=1;rounded=0;" edge="1" parent="1">
          <mxGeometry width="50" height="50" relative="1" as="geometry">
            <mxPoint x="180" y="160" as="sourcePoint" />
            <mxPoint x="260" y="160" as="targetPoint" />
            <Array as="points">
              <mxPoint x="200" y="160" />
              <mxPoint x="200" y="120" />
              <mxPoint x="220" y="120" />
              <mxPoint x="220" y="160" />
              <mxPoint x="240" y="160" />
              <mxPoint x="240" y="120" />
              <mxPoint x="260" y="120" />
            </Array>
          </mxGeometry>
        </mxCell>
        <mxCell id="ULT_UUo3YE9wD12uy11K-3" value="" style="endArrow=none;html=1;rounded=0;" edge="1" parent="1">
          <mxGeometry width="50" height="50" relative="1" as="geometry">
            <mxPoint x="340" y="160" as="sourcePoint" />
            <mxPoint x="420" y="160" as="targetPoint" />
            <Array as="points">
              <mxPoint x="360" y="160" />
              <mxPoint x="360" y="120" />
              <mxPoint x="380" y="120" />
              <mxPoint x="380" y="160" />
              <mxPoint x="400" y="160" />
              <mxPoint x="400" y="120" />
              <mxPoint x="420" y="120" />
            </Array>
          </mxGeometry>
        </mxCell>
        <mxCell id="ULT_UUo3YE9wD12uy11K-4" value="" style="endArrow=none;html=1;rounded=0;" edge="1" parent="1">
          <mxGeometry width="50" height="50" relative="1" as="geometry">
            <mxPoint x="260" y="160" as="sourcePoint" />
            <mxPoint x="340" y="160" as="targetPoint" />
            <Array as="points">
              <mxPoint x="280" y="160" />
              <mxPoint x="280" y="120" />
              <mxPoint x="300" y="120" />
              <mxPoint x="300" y="160" />
              <mxPoint x="320" y="160" />
              <mxPoint x="320" y="120" />
              <mxPoint x="340" y="120" />
            </Array>
          </mxGeometry>
        </mxCell>
        <mxCell id="ULT_UUo3YE9wD12uy11K-5" value="" style="endArrow=none;html=1;rounded=0;" edge="1" parent="1">
          <mxGeometry width="50" height="50" relative="1" as="geometry">
            <mxPoint x="420" y="160" as="sourcePoint" />
            <mxPoint x="500" y="160" as="targetPoint" />
            <Array as="points">
              <mxPoint x="440" y="160" />
              <mxPoint x="440" y="120" />
              <mxPoint x="460" y="120" />
              <mxPoint x="460" y="160" />
              <mxPoint x="480" y="160" />
              <mxPoint x="480" y="120" />
              <mxPoint x="500" y="120" />
            </Array>
          </mxGeometry>
        </mxCell>
        <mxCell id="ULT_UUo3YE9wD12uy11K-6" value="" style="endArrow=none;html=1;rounded=0;" edge="1" parent="1">
          <mxGeometry width="50" height="50" relative="1" as="geometry">
            <mxPoint x="500" y="160" as="sourcePoint" />
            <mxPoint x="580" y="160" as="targetPoint" />
            <Array as="points">
              <mxPoint x="520" y="160" />
              <mxPoint x="520" y="120" />
              <mxPoint x="540" y="120" />
              <mxPoint x="540" y="160" />
              <mxPoint x="560" y="160" />
              <mxPoint x="560" y="120" />
              <mxPoint x="580" y="120" />
            </Array>
          </mxGeometry>
        </mxCell>
        <mxCell id="ULT_UUo3YE9wD12uy11K-7" value="&lt;font style=&quot;font-size: 20px;&quot;&gt;16bit Data&lt;/font&gt;" style="endArrow=none;html=1;rounded=0;" edge="1" parent="1">
          <mxGeometry width="50" height="50" relative="1" as="geometry">
            <mxPoint x="100" y="200" as="sourcePoint" />
            <mxPoint x="900" y="200" as="targetPoint" />
            <Array as="points">
              <mxPoint x="140" y="200" />
              <mxPoint x="150" y="240" />
              <mxPoint x="170" y="240" />
              <mxPoint x="180" y="220" />
              <mxPoint x="810" y="220" />
              <mxPoint x="820" y="200" />
            </Array>
          </mxGeometry>
        </mxCell>
        <mxCell id="ULT_UUo3YE9wD12uy11K-8" value="" style="endArrow=none;html=1;rounded=0;" edge="1" parent="1">
          <mxGeometry width="50" height="50" relative="1" as="geometry">
            <mxPoint x="580" y="160" as="sourcePoint" />
            <mxPoint x="660" y="160" as="targetPoint" />
            <Array as="points">
              <mxPoint x="600" y="160" />
              <mxPoint x="600" y="120" />
              <mxPoint x="620" y="120" />
              <mxPoint x="620" y="160" />
              <mxPoint x="640" y="160" />
              <mxPoint x="640" y="120" />
              <mxPoint x="660" y="120" />
            </Array>
          </mxGeometry>
        </mxCell>
        <mxCell id="ULT_UUo3YE9wD12uy11K-9" value="" style="endArrow=none;html=1;rounded=0;" edge="1" parent="1">
          <mxGeometry width="50" height="50" relative="1" as="geometry">
            <mxPoint x="660" y="160" as="sourcePoint" />
            <mxPoint x="740" y="160" as="targetPoint" />
            <Array as="points">
              <mxPoint x="680" y="160" />
              <mxPoint x="680" y="120" />
              <mxPoint x="700" y="120" />
              <mxPoint x="700" y="160" />
              <mxPoint x="720" y="160" />
              <mxPoint x="720" y="120" />
              <mxPoint x="740" y="120" />
            </Array>
          </mxGeometry>
        </mxCell>
        <mxCell id="ULT_UUo3YE9wD12uy11K-10" value="" style="endArrow=none;html=1;rounded=0;" edge="1" parent="1">
          <mxGeometry width="50" height="50" relative="1" as="geometry">
            <mxPoint x="740" y="160" as="sourcePoint" />
            <mxPoint x="820" y="160" as="targetPoint" />
            <Array as="points">
              <mxPoint x="760" y="160" />
              <mxPoint x="760" y="120" />
              <mxPoint x="780" y="120" />
              <mxPoint x="780" y="160" />
              <mxPoint x="800" y="160" />
              <mxPoint x="800" y="120" />
              <mxPoint x="820" y="120" />
            </Array>
          </mxGeometry>
        </mxCell>
        <mxCell id="ULT_UUo3YE9wD12uy11K-11" value="" style="endArrow=none;html=1;rounded=0;" edge="1" parent="1">
          <mxGeometry width="50" height="50" relative="1" as="geometry">
            <mxPoint x="820" y="160" as="sourcePoint" />
            <mxPoint x="900" y="160" as="targetPoint" />
            <Array as="points">
              <mxPoint x="840" y="160" />
              <mxPoint x="840" y="120" />
              <mxPoint x="860" y="120" />
              <mxPoint x="860" y="160" />
              <mxPoint x="880" y="160" />
              <mxPoint x="880" y="120" />
              <mxPoint x="900" y="120" />
            </Array>
          </mxGeometry>
        </mxCell>
        <mxCell id="ULT_UUo3YE9wD12uy11K-12" value="&lt;font style=&quot;font-size: 20px;&quot;&gt;bit 15&lt;/font&gt;" style="endArrow=none;dashed=1;html=1;rounded=0;" edge="1" parent="1">
          <mxGeometry width="50" height="50" relative="1" as="geometry">
            <mxPoint x="200" y="280" as="sourcePoint" />
            <mxPoint x="200" y="80" as="targetPoint" />
            <mxPoint as="offset" />
          </mxGeometry>
        </mxCell>
        <mxCell id="ULT_UUo3YE9wD12uy11K-14" value="&lt;font style=&quot;font-size: 20px;&quot;&gt;bit 0&lt;/font&gt;" style="endArrow=none;dashed=1;html=1;rounded=0;" edge="1" parent="1">
          <mxGeometry width="50" height="50" relative="1" as="geometry">
            <mxPoint x="800" y="280" as="sourcePoint" />
            <mxPoint x="800" y="80" as="targetPoint" />
          </mxGeometry>
        </mxCell>
        <mxCell id="ULT_UUo3YE9wD12uy11K-15" value="&lt;font style=&quot;font-size: 20px;&quot;&gt;Stop&lt;/font&gt;" style="text;html=1;align=center;verticalAlign=middle;whiteSpace=wrap;rounded=0;" vertex="1" parent="1">
          <mxGeometry x="820" y="200" width="60" height="30" as="geometry" />
        </mxCell>
        <mxCell id="ULT_UUo3YE9wD12uy11K-16" value="&lt;font style=&quot;font-size: 20px;&quot;&gt;Start&lt;/font&gt;" style="text;html=1;align=center;verticalAlign=middle;whiteSpace=wrap;rounded=0;" vertex="1" parent="1">
          <mxGeometry x="140" y="190" width="60" height="30" as="geometry" />
        </mxCell>
      </root>
    </mxGraphModel>
  </diagram>
</mxfile>
